<svg xmlns="http://www.w3.org/2000/svg" width="300" height="300" viewBox="0 0 100 100">
  <g fill="none" stroke="#ffffff" stroke-width="0.5">
    <rect width="100" height="100" fill="#000000" fill-opacity="0"/>
    <path d="M20,10 L80,10 M80,10 L80,30 M80,30 L90,30 M20,10 L20,20 M20,20 L10,20 M10,20 L10,90 M10,90 L30,90 M30,90 L30,80 M30,80 L40,80 M40,80 L40,70 M40,70 L60,70 M60,70 L60,80 M60,80 L80,80 M80,80 L80,50 M80,50 L70,50 M70,50 L70,40 M70,40 L60,40 M60,40 L60,20 M60,20 L40,20 M40,20 L40,40 M40,40 L20,40 M20,40 L20,60 M20,60 L40,60 M70,90 L70,60 M90,90 L90,50"/>
    <circle cx="10" cy="20" r="2" />
    <circle cx="10" cy="90" r="2" />
    <circle cx="90" cy="30" r="2" />
    <circle cx="90" cy="50" r="2" />
    <circle cx="90" cy="90" r="2" />
    <circle cx="80" cy="10" r="2" />
    <circle cx="80" cy="30" r="2" />
    <circle cx="80" cy="50" r="2" />
    <circle cx="80" cy="80" r="2" />
    <circle cx="70" cy="40" r="2" />
    <circle cx="70" cy="50" r="2" />
    <circle cx="70" cy="60" r="2" />
    <circle cx="70" cy="90" r="2" />
    <circle cx="60" cy="20" r="2" />
    <circle cx="60" cy="40" r="2" />
    <circle cx="60" cy="70" r="2" />
    <circle cx="60" cy="80" r="2" />
    <circle cx="40" cy="20" r="2" />
    <circle cx="40" cy="40" r="2" />
    <circle cx="40" cy="60" r="2" />
    <circle cx="40" cy="70" r="2" />
    <circle cx="40" cy="80" r="2" />
    <circle cx="30" cy="80" r="2" />
    <circle cx="30" cy="90" r="2" />
    <circle cx="20" cy="10" r="2" />
    <circle cx="20" cy="20" r="2" />
    <circle cx="20" cy="40" r="2" />
    <circle cx="20" cy="60" r="2" />
  </g>
</svg> 