<?xml version="1.0" encoding="UTF-8"?>
<svg id="_레이어_2" data-name="레이어 2" xmlns="http://www.w3.org/2000/svg" xmlns:xlink="http://www.w3.org/1999/xlink" viewBox="0 0 326.73 25.87">
  <defs>
    <style>
      .cls-1 {
        fill: url(#radial-gradient);
      }

      .cls-2 {
        fill: #00348c;
      }

      .cls-3 {
        fill: #fff;
      }

      .cls-4 {
        fill: #008ccf;
      }
    </style>
    <radialGradient id="radial-gradient" cx="5616.07" cy="868.25" fx="5616.07" fy="868.25" r="92.32" gradientTransform="translate(-1141.14 -190.24) scale(.22)" gradientUnits="userSpaceOnUse">
      <stop offset="0" stop-color="#82c1ea"/>
      <stop offset=".11" stop-color="#49a9de"/>
      <stop offset=".22" stop-color="#1494d3"/>
      <stop offset=".28" stop-color="#008ccf"/>
      <stop offset="1" stop-color="#00348c"/>
    </radialGradient>
  </defs>
  <g id="_레이어_1-2" data-name="레이어 1">
    <g>
      <g>
        <g>
          <path class="cls-1" d="M82.21,0h14.98v11.32c0,1.08-.31,7.15-7.49,9.59-7.18-2.44-7.49-8.51-7.49-9.59V0Z"/>
          <path class="cls-3" d="M86.13,16.62l2.24-2.27,2.22,2.22h2.94v-6.44h1.93v-2.35h-1.93v-.69h1.93v-2.16h-1.99v-2.76h-6.19v2.13h3.78v9.28l-2.69-2.66-3.96,3.96,1.72,1.73Z"/>
        </g>
        <path class="cls-2" d="M57.3,4.32h-4.56v13.71c0,3.52-.6,5.3-3.85,5.3s-3.75-1.95-3.75-5.3V4.32h-4.72v13.94c0,3.95,1.03,7.61,8.47,7.61s8.58-3.65,8.58-7.61V4.32h-.16Z"/>
        <polygon class="cls-4" points="73.12 25.54 77.85 25.54 77.85 4.32 77.68 4.32 73.12 4.32 73.12 13.11 65.42 13.11 65.42 4.32 60.7 4.32 60.7 25.54 65.42 25.54 65.42 16.03 73.12 16.03 73.12 25.54"/>
        <path class="cls-2" d="M32.74,4.32v14.24c-.58-1-8.27-14.24-8.27-14.24h-5.06v21.21h4.39s0-13.87,0-15c.58,1.01,8.7,15,8.7,15h4.62V4.32h-4.39Z"/>
        <path class="cls-2" d="M9.87,12.6c-2.71-1.18-5.05-2.19-5.05-3.91,0-1.2,1.32-2.01,3.28-2,3.14.02,6.23,1.12,7.18,1.51l.26.11v-3.68h-.09c-.9-.16-3.88-.64-6.69-.64C3.28,3.99,0,6.06,0,9.54c0,3.67,3.65,5.33,6.87,6.8,2.66,1.22,5.18,2.36,5.18,4.44,0,2.23-3.41,2.33-3.8,2.33-2.17,0-4.65-.66-7.57-2.15l-.28-.14v4.08l.33.07c1.05.25,3.85.9,6.75.9,6.39,0,9.76-2.2,9.76-6.36,0-3.71-3.91-5.41-7.37-6.91Z"/>
      </g>
      <g>
        <path class="cls-2" d="M111.45,25.54v-4.19h-2.71v4.19h-1.48v-8.97h1.48v3.76h2.71v-3.76h1.48v8.97h-1.48Z"/>
        <path class="cls-2" d="M115.74,25.54v-8.97h4.56v1.03h-3.08v2.76h2.92v1.03h-2.92v3.08h3.18v1.08h-4.66Z"/>
        <path class="cls-2" d="M127.3,25.54l-.68-2.55h-2.66l-.7,2.55h-1.31l2.69-8.97h1.52l2.71,8.97h-1.57ZM125.32,18.07h-.02l-1.07,3.96h2.15l-1.05-3.96Z"/>
        <path class="cls-2" d="M130.88,25.54v-8.97h1.48v7.89h2.92v1.08h-4.4Z"/>
        <path class="cls-2" d="M139.58,17.59v7.94h-1.48v-7.94h-1.88v-1.03h5.23v1.03h-1.88Z"/>
        <path class="cls-2" d="M147.66,25.54v-4.19h-2.71v4.19h-1.48v-8.97h1.48v3.76h2.71v-3.76h1.48v8.97h-1.48Z"/>
        <path class="cls-2" d="M155.88,19.01c.01-.86-.28-1.73-1.14-1.73-1.33,0-1.54,2.18-1.54,3.31,0,1.65.25,4,2.11,4,.76,0,1.36-.36,1.93-.88v1.4c-.71.33-1.42.56-2.21.56-2.46,0-3.4-2.27-3.4-4.8s.85-4.46,3.19-4.46c1.47,0,2.75.69,2.74,2.59h-1.68Z"/>
        <path class="cls-2" d="M164.15,25.54l-.68-2.55h-2.66l-.7,2.55h-1.31l2.69-8.97h1.52l2.71,8.97h-1.57ZM162.17,18.07h-.02l-1.07,3.96h2.15l-1.05-3.96Z"/>
        <path class="cls-2" d="M171.61,25.54l-.28-1.69c-.2-1.25-.32-2.24-1.66-2.24h-.46v3.93h-1.48v-8.97h1.77c1.46,0,3.28.16,3.28,2.34,0,1.2-.69,1.81-1.63,2.08v.03c1.11.23,1.3,1.03,1.5,2.15l.44,2.38h-1.48ZM169.5,17.51h-.29v3.15h.29c1.01,0,1.8-.29,1.8-1.62s-.8-1.52-1.8-1.52Z"/>
        <path class="cls-2" d="M175.38,25.54v-8.97h4.56v1.03h-3.08v2.76h2.92v1.03h-2.92v3.08h3.18v1.08h-4.66Z"/>
        <path class="cls-2" d="M192.59,25.54l-.68-2.55h-2.66l-.7,2.55h-1.31l2.69-8.97h1.52l2.71,8.97h-1.57ZM190.62,18.07h-.02l-1.07,3.96h2.15l-1.05-3.96Z"/>
        <path class="cls-2" d="M196.16,25.54v-8.97h1.48v8.97h-1.48Z"/>
        <path class="cls-2" d="M208.89,25.54l-.28-1.69c-.2-1.25-.32-2.24-1.66-2.24h-.46v3.93h-1.48v-8.97h1.77c1.46,0,3.28.16,3.28,2.34,0,1.2-.69,1.81-1.63,2.08v.03c1.11.23,1.3,1.03,1.5,2.15l.44,2.38h-1.48ZM206.78,17.51h-.29v3.15h.29c1.01,0,1.8-.29,1.8-1.62s-.8-1.52-1.8-1.52Z"/>
        <path class="cls-2" d="M212.66,25.54v-8.97h4.56v1.03h-3.08v2.76h2.92v1.03h-2.92v3.08h3.18v1.08h-4.66Z"/>
        <path class="cls-2" d="M221.5,25.68c-.72,0-1.42-.18-2.11-.4v-1.59c.69.49,1.52.96,2.35.96.59,0,1.22-.31,1.22-1.09,0-2.03-3.7-1.99-3.7-4.82,0-1.74,1.33-2.31,2.63-2.31.66,0,1.3.1,1.94.25v1.39c-.61-.34-1.47-.61-2.15-.61-.49,0-1.06.26-1.06.92,0,1.75,3.81,1.86,3.81,4.64,0,2.04-1.39,2.67-2.94,2.67Z"/>
        <path class="cls-2" d="M226.73,25.54v-8.97h4.56v1.03h-3.08v2.76h2.92v1.03h-2.92v3.08h3.18v1.08h-4.66Z"/>
        <path class="cls-2" d="M238.29,25.54l-.68-2.55h-2.66l-.7,2.55h-1.31l2.69-8.97h1.52l2.71,8.97h-1.57ZM236.31,18.07h-.02l-1.07,3.96h2.15l-1.05-3.96Z"/>
        <path class="cls-2" d="M245.75,25.54l-.28-1.69c-.2-1.25-.32-2.24-1.66-2.24h-.46v3.93h-1.48v-8.97h1.77c1.46,0,3.28.16,3.28,2.34,0,1.2-.69,1.81-1.63,2.08v.03c1.11.23,1.3,1.03,1.5,2.15l.44,2.38h-1.48ZM243.64,17.51h-.29v3.15h.29c1.01,0,1.8-.29,1.8-1.62s-.8-1.52-1.8-1.52Z"/>
        <path class="cls-2" d="M253.44,19.01c.01-.86-.28-1.73-1.14-1.73-1.33,0-1.54,2.18-1.54,3.31,0,1.65.25,4,2.11,4,.76,0,1.36-.36,1.93-.88v1.4c-.71.33-1.42.56-2.21.56-2.46,0-3.4-2.27-3.4-4.8s.85-4.46,3.19-4.46c1.47,0,2.75.69,2.74,2.59h-1.68Z"/>
        <path class="cls-2" d="M261.39,25.54v-4.19h-2.71v4.19h-1.48v-8.97h1.48v3.76h2.71v-3.76h1.48v8.97h-1.48Z"/>
        <path class="cls-2" d="M270.22,25.54v-8.97h1.48v8.97h-1.48Z"/>
        <path class="cls-2" d="M278.93,25.54l-3.17-6.98h-.02v6.98h-1.21v-8.97h1.62l3.02,6.66h.02v-6.66h1.21v8.97h-1.47Z"/>
        <path class="cls-2" d="M285.04,25.68c-.72,0-1.42-.18-2.11-.4v-1.59c.69.49,1.52.96,2.35.96.59,0,1.22-.31,1.22-1.09,0-2.03-3.7-1.99-3.7-4.82,0-1.74,1.33-2.31,2.63-2.31.66,0,1.3.1,1.95.25v1.39c-.61-.34-1.47-.61-2.15-.61-.49,0-1.06.26-1.06.92,0,1.75,3.81,1.86,3.81,4.64,0,2.04-1.39,2.67-2.94,2.67Z"/>
        <path class="cls-2" d="M292.8,17.59v7.94h-1.48v-7.94h-1.88v-1.03h5.24v1.03h-1.88Z"/>
        <path class="cls-2" d="M296.67,25.54v-8.97h1.48v8.97h-1.48Z"/>
        <path class="cls-2" d="M303.51,17.59v7.94h-1.48v-7.94h-1.88v-1.03h5.24v1.03h-1.88Z"/>
        <path class="cls-2" d="M310.11,25.68c-1.99,0-2.8-.91-2.8-3.2v-5.92h1.48v5.92c0,1.12.07,2.34,1.32,2.34s1.36-1.17,1.36-2.34v-5.92h1.48v5.92c0,2.31-.85,3.2-2.84,3.2Z"/>
        <path class="cls-2" d="M318.2,17.59v7.94h-1.48v-7.94h-1.88v-1.03h5.24v1.03h-1.88Z"/>
        <path class="cls-2" d="M322.07,25.54v-8.97h4.56v1.03h-3.08v2.76h2.92v1.03h-2.92v3.08h3.18v1.08h-4.66Z"/>
      </g>
      <g>
        <path class="cls-2" d="M108.14,10.55c-.47,0-.93-.12-1.38-.26v-1.04c.45.32.99.63,1.54.63.38,0,.8-.2.8-.71,0-1.33-2.42-1.3-2.42-3.15,0-1.14.87-1.51,1.72-1.51.43,0,.85.07,1.27.16v.91c-.4-.22-.96-.4-1.41-.4-.32,0-.7.17-.7.6,0,1.15,2.49,1.21,2.49,3.03,0,1.33-.91,1.74-1.92,1.74Z"/>
        <path class="cls-2" d="M111.45,10.46v-5.86h2.98v.67h-2.01v1.8h1.91v.67h-1.91v2.01h2.08v.71h-3.05Z"/>
        <path class="cls-2" d="M117.88,10.55c-1.61,0-2.13-1.4-2.13-3.03s.53-3.03,2.13-3.03,2.13,1.4,2.13,3.03-.53,3.03-2.13,3.03ZM117.88,5.06c-1.02,0-1.11,1.61-1.11,2.46s.09,2.46,1.11,2.46,1.11-1.61,1.11-2.46-.09-2.46-1.11-2.46Z"/>
        <path class="cls-2" d="M123.32,10.55c-1.3,0-1.84-.59-1.84-2.09v-3.87h.97v3.87c0,.73.04,1.53.87,1.53s.89-.76.89-1.53v-3.87h.97v3.87c0,1.51-.56,2.09-1.86,2.09Z"/>
        <path class="cls-2" d="M126.86,10.46v-5.86h.97v5.16h1.91v.71h-2.88Z"/>
        <path class="cls-2" d="M136.68,10.46l-2.07-4.56h-.01v4.56h-.79v-5.86h1.06l1.98,4.35h.01v-4.35h.79v5.86h-.96Z"/>
        <path class="cls-2" d="M142.34,10.46l-.44-1.67h-1.74l-.46,1.67h-.86l1.76-5.86h.99l1.78,5.86h-1.03ZM141.05,5.58h-.01l-.7,2.59h1.41l-.69-2.59Z"/>
        <path class="cls-2" d="M146.08,5.26v5.19h-.97v-5.19h-1.23v-.67h3.43v.67h-1.23Z"/>
        <path class="cls-2" d="M148.51,10.46v-5.86h.97v5.86h-.97Z"/>
        <path class="cls-2" d="M153.15,10.55c-1.61,0-2.13-1.4-2.13-3.03s.53-3.03,2.13-3.03,2.13,1.4,2.13,3.03-.53,3.03-2.13,3.03ZM153.15,5.06c-1.02,0-1.11,1.61-1.11,2.46s.09,2.46,1.11,2.46,1.11-1.61,1.11-2.46-.09-2.46-1.11-2.46Z"/>
        <path class="cls-2" d="M159.7,10.46l-2.07-4.56h-.01v4.56h-.79v-5.86h1.06l1.98,4.35h.01v-4.35h.79v5.86h-.96Z"/>
        <path class="cls-2" d="M165.36,10.46l-.44-1.67h-1.74l-.46,1.67h-.86l1.76-5.86h.99l1.78,5.86h-1.03ZM164.07,5.58h-.01l-.7,2.59h1.41l-.69-2.59Z"/>
        <path class="cls-2" d="M167.59,10.46v-5.86h.97v5.16h1.91v.71h-2.88Z"/>
        <path class="cls-2" d="M176.31,10.55c-1.3,0-1.84-.59-1.84-2.09v-3.87h.97v3.87c0,.73.04,1.53.87,1.53s.89-.76.89-1.53v-3.87h.97v3.87c0,1.51-.56,2.09-1.86,2.09Z"/>
        <path class="cls-2" d="M182.73,10.46l-2.07-4.56h-.01v4.56h-.79v-5.86h1.06l1.98,4.35h.01v-4.35h.79v5.86h-.96Z"/>
        <path class="cls-2" d="M185.43,10.46v-5.86h.97v5.86h-.97Z"/>
        <path class="cls-2" d="M190.22,10.46h-1l-1.74-5.86h1.01l1.3,4.52h.01l1.32-4.52h.86l-1.77,5.86Z"/>
        <path class="cls-2" d="M193.05,10.46v-5.86h2.98v.67h-2.01v1.8h1.91v.67h-1.91v2.01h2.08v.71h-3.05Z"/>
        <path class="cls-2" d="M200.1,10.46l-.19-1.1c-.13-.82-.21-1.46-1.09-1.46h-.3v2.57h-.97v-5.86h1.16c.95,0,2.15.1,2.15,1.53,0,.78-.45,1.18-1.07,1.36v.02c.73.15.85.67.98,1.4l.29,1.56h-.97ZM198.72,5.21h-.19v2.06h.19c.66,0,1.18-.19,1.18-1.06s-.53-.99-1.18-.99Z"/>
        <path class="cls-2" d="M203.64,10.55c-.47,0-.93-.12-1.38-.26v-1.04c.45.32.99.63,1.54.63.38,0,.8-.2.8-.71,0-1.33-2.42-1.3-2.42-3.15,0-1.14.87-1.51,1.72-1.51.43,0,.85.07,1.27.16v.91c-.4-.22-.96-.4-1.41-.4-.32,0-.7.17-.7.6,0,1.15,2.49,1.21,2.49,3.03,0,1.33-.91,1.74-1.92,1.74Z"/>
        <path class="cls-2" d="M206.96,10.46v-5.86h.97v5.86h-.97Z"/>
        <path class="cls-2" d="M211.33,5.26v5.19h-.97v-5.19h-1.23v-.67h3.43v.67h-1.23Z"/>
        <path class="cls-2" d="M215.65,7.71v2.75h-.97v-2.75l-1.59-3.12h1.12l1.07,2.15,1.11-2.15h.93l-1.67,3.12Z"/>
        <path class="cls-2" d="M224,10.46v-2.74h-1.78v2.74h-.97v-5.86h.97v2.46h1.78v-2.46h.97v5.86h-.97Z"/>
        <path class="cls-2" d="M228.63,10.55c-1.61,0-2.13-1.4-2.13-3.03s.53-3.03,2.13-3.03,2.13,1.4,2.13,3.03-.53,3.03-2.13,3.03ZM228.63,5.06c-1.02,0-1.11,1.61-1.11,2.46s.09,2.46,1.11,2.46,1.11-1.61,1.11-2.46-.09-2.46-1.11-2.46Z"/>
        <path class="cls-2" d="M233.48,10.55c-.47,0-.93-.12-1.38-.26v-1.04c.45.32.99.63,1.54.63.38,0,.8-.2.8-.71,0-1.33-2.42-1.3-2.42-3.15,0-1.14.87-1.51,1.72-1.51.43,0,.85.07,1.27.16v.91c-.4-.22-.96-.4-1.41-.4-.32,0-.7.17-.7.6,0,1.15,2.49,1.21,2.49,3.03,0,1.33-.91,1.74-1.92,1.74Z"/>
        <path class="cls-2" d="M237.76,7.91v2.55h-.97v-5.86h1.21c1.02,0,2.03.17,2.03,1.62,0,1.59-1.2,1.69-2.27,1.69ZM238.01,5.21h-.24v2.07h.24c.67,0,1.06-.24,1.06-1.08s-.41-.99-1.06-.99Z"/>
        <path class="cls-2" d="M241.28,10.46v-5.86h.97v5.86h-.97Z"/>
        <path class="cls-2" d="M245.66,5.26v5.19h-.97v-5.19h-1.23v-.67h3.43v.67h-1.23Z"/>
        <path class="cls-2" d="M250.9,10.46l-.44-1.67h-1.74l-.46,1.67h-.86l1.76-5.86h.99l1.78,5.86h-1.03ZM249.6,5.58h-.01l-.7,2.59h1.41l-.69-2.59Z"/>
        <path class="cls-2" d="M253.13,10.46v-5.86h.97v5.16h1.91v.71h-2.88Z"/>
      </g>
    </g>
  </g>
</svg>